<?xml version="1.0" standalone="no"?>
<!DOCTYPE svg PUBLIC "-//W3C//DTD SVG 20010904//EN"
 "http://www.w3.org/TR/2001/REC-SVG-20010904/DTD/svg10.dtd">
<svg version="1.0" xmlns="http://www.w3.org/2000/svg"
 width="300.000000pt" height="74.000000pt" viewBox="0 0 300.000000 74.000000"
 preserveAspectRatio="xMidYMid meet">
<metadata>
Created by potrace 1.10, written by Peter Selinger 2001-2011
</metadata>
<g transform="translate(0.000000,74.000000) scale(0.100000,-0.100000)"
fill="#000000" stroke="none">
<path d="M1035 473 c-31 -8 -73 -52 -80 -84 -9 -38 11 -94 38 -112 32 -20 74
-26 113 -15 33 9 34 11 34 58 l0 50 -40 0 c-33 0 -40 -3 -40 -20 0 -15 7 -20
26 -20 40 0 28 -34 -15 -38 -71 -7 -109 78 -56 128 20 19 32 22 65 17 39 -5
61 6 44 23 -12 11 -65 19 -89 13z"/>
<path d="M1200 364 c0 -101 2 -112 18 -109 13 2 16 10 14 39 -3 32 0 36 20 36
16 0 29 -10 42 -34 16 -29 52 -53 64 -42 2 3 -9 23 -24 45 -25 39 -26 42 -10
59 21 24 21 76 0 93 -9 7 -40 16 -70 19 l-54 6 0 -112z m100 57 c14 -26 4 -48
-26 -55 -34 -9 -44 0 -44 40 0 31 3 34 30 34 19 0 33 -7 40 -19z"/>
<path d="M1410 365 l0 -110 75 0 c65 0 75 2 75 18 0 14 -10 17 -60 17 -60 0
-60 0 -60 30 0 29 1 30 50 30 38 0 50 4 50 15 0 11 -12 15 -50 15 -49 0 -50 1
-50 30 l0 30 61 0 c50 0 60 3 57 16 -2 13 -18 16 -76 17 l-72 2 0 -110z"/>
<path d="M1640 373 c-25 -58 -46 -110 -48 -115 -2 -4 4 -8 13 -8 9 0 22 13 28
30 10 27 16 30 53 30 36 0 43 -3 48 -24 5 -21 38 -41 49 -29 3 2 -5 25 -18 51
-12 26 -33 75 -46 109 -13 35 -26 63 -29 63 -3 0 -25 -48 -50 -107z m70 -20
c0 -7 -11 -13 -25 -13 -29 0 -29 0 -13 35 11 25 13 26 25 9 7 -10 13 -24 13
-31z"/>
<path d="M1820 458 c0 -13 8 -18 31 -18 l31 0 -3 -91 c-4 -82 -2 -92 14 -95
15 -2 17 8 17 92 l0 94 31 0 c23 0 30 4 27 16 -2 13 -18 16 -76 17 -62 2 -72
0 -72 -15z"/>
<path d="M220 360 c0 -67 4 -110 10 -110 6 0 10 43 10 110 0 67 -4 110 -10
110 -6 0 -10 -43 -10 -110z"/>
<path d="M312 360 c-2 -71 1 -110 8 -110 6 0 10 35 10 91 l0 92 42 -49 c24
-27 62 -69 85 -94 l43 -45 0 113 c0 68 -4 112 -10 112 -6 0 -10 -37 -10 -90
l0 -90 -77 89 c-43 49 -80 90 -83 90 -3 1 -6 -49 -8 -109z"/>
<path d="M550 460 c0 -5 16 -10 35 -10 l35 0 0 -100 c0 -60 4 -100 10 -100 6
0 10 40 10 100 l0 100 30 0 c17 0 30 5 30 10 0 6 -32 10 -75 10 -43 0 -75 -4
-75 -10z"/>
<path d="M760 360 l0 -110 70 0 c40 0 70 4 70 10 0 6 -27 10 -60 10 l-60 0 0
40 0 40 55 0 c30 0 55 5 55 10 0 6 -25 10 -55 10 l-55 0 0 40 0 40 60 0 c33 0
60 4 60 10 0 6 -30 10 -70 10 l-70 0 0 -110z"/>
<path d="M2020 360 c0 -67 4 -110 10 -110 6 0 10 43 10 110 0 67 -4 110 -10
110 -6 0 -10 -43 -10 -110z"/>
<path d="M2145 437 c-27 -27 -35 -43 -35 -71 0 -72 43 -116 111 -116 141 0
147 201 6 217 -43 5 -49 3 -82 -30z m118 1 c33 -17 46 -39 47 -79 0 -68 -65
-110 -128 -84 -37 16 -52 42 -52 88 0 66 73 107 133 75z"/>
<path d="M2390 363 c0 -133 18 -155 22 -27 l3 87 74 -84 c41 -46 78 -85 83
-87 4 -2 8 46 8 107 0 67 -4 111 -10 111 -6 0 -10 -37 -10 -92 l0 -92 -52 59
c-29 33 -68 76 -85 95 l-32 35 -1 -112z"/>
<path d="M2670 452 c-36 -29 -21 -66 38 -94 57 -28 67 -58 27 -84 -21 -14 -31
-15 -51 -5 -35 16 -53 13 -30 -4 28 -21 89 -19 109 3 35 38 19 76 -44 108 -34
17 -49 31 -49 44 0 23 37 35 75 26 27 -7 35 8 9 18 -29 11 -61 6 -84 -12z"/>
<path d="M2084 165 c-10 -26 4 -45 33 -44 l28 1 -25 7 c-14 4 -25 13 -25 21 0
8 11 17 25 21 l25 7 -28 1 c-16 1 -30 -5 -33 -14z"/>
<path d="M2157 166 c-11 -28 4 -47 32 -44 20 2 26 8 26 28 0 20 -6 26 -26 28
-17 2 -29 -3 -32 -12z m48 -16 c0 -8 -8 -16 -17 -18 -13 -2 -18 3 -18 18 0 15
5 20 18 18 9 -2 17 -10 17 -18z"/>
<path d="M2240 150 c0 -16 5 -30 11 -30 6 0 8 7 5 16 -4 12 -2 15 9 10 18 -7
20 5 3 22 -19 19 -28 14 -28 -18z"/>
<path d="M2320 166 c0 -8 10 -18 23 -22 l22 -8 -25 -7 -25 -7 28 -1 c31 -1 38
23 10 34 -17 7 -16 8 2 15 18 8 17 9 -7 9 -18 1 -28 -4 -28 -13z"/>
<path d="M2393 155 c2 -25 6 -30 27 -30 20 0 26 6 28 28 2 15 -1 27 -7 27 -6
0 -11 -12 -11 -26 0 -32 -22 -27 -32 7 -6 22 -7 21 -5 -6z"/>
<path d="M2470 150 c0 -26 3 -30 28 -29 24 2 25 2 4 6 -19 4 -23 9 -18 29 4
14 2 24 -4 24 -5 0 -10 -13 -10 -30z"/>
<path d="M2531 173 c11 -3 15 -12 11 -28 -2 -15 0 -25 7 -25 6 0 11 11 11 24
0 13 6 27 13 29 6 3 -4 5 -23 5 -19 0 -28 -2 -19 -5z"/>
<path d="M2590 150 c0 -16 5 -30 10 -30 6 0 10 14 10 30 0 17 -4 30 -10 30 -5
0 -10 -13 -10 -30z"/>
<path d="M2630 150 c0 -16 5 -30 11 -30 6 0 8 7 5 16 -4 12 -2 15 9 10 18 -7
20 5 3 22 -19 19 -28 14 -28 -18z"/>
<path d="M2714 165 c-10 -25 4 -45 31 -45 17 0 25 5 25 18 0 14 -2 14 -9 3
-11 -17 -45 -7 -39 11 3 7 15 15 29 19 23 7 23 7 -4 8 -16 1 -30 -5 -33 -14z"/>
</g>
</svg>
